<mxfile host="app.diagrams.net" agent="Mozilla/5.0 (X11; Linux x86_64) AppleWebKit/537.36 (KHTML, like Gecko) Chrome/126.0.0.0 Safari/537.36" version="24.7.8">
  <diagram name="Page-1" id="m_12k5Z-0vJpri9sNBft">
    <mxGraphModel dx="1195" dy="1709" grid="1" gridSize="10" guides="1" tooltips="1" connect="1" arrows="1" fold="1" page="1" pageScale="1" pageWidth="850" pageHeight="1100" math="0" shadow="0">
      <root>
        <mxCell id="0" />
        <mxCell id="1" parent="0" />
        <mxCell id="gp_50LsP-cC8xw_pavmQ-13" value="&lt;font style=&quot;font-size: 20px;&quot;&gt;User&lt;/font&gt;" style="shape=umlActor;verticalLabelPosition=bottom;verticalAlign=top;html=1;" vertex="1" parent="1">
          <mxGeometry x="130" y="100" width="80" height="140" as="geometry" />
        </mxCell>
        <mxCell id="gp_50LsP-cC8xw_pavmQ-19" value="Create" style="ellipse;whiteSpace=wrap;html=1;" vertex="1" parent="1">
          <mxGeometry x="390" y="-50" width="122.5" height="70" as="geometry" />
        </mxCell>
        <mxCell id="gp_50LsP-cC8xw_pavmQ-23" value="Details" style="ellipse;whiteSpace=wrap;html=1;" vertex="1" parent="1">
          <mxGeometry x="400" y="90" width="122.5" height="70" as="geometry" />
        </mxCell>
        <mxCell id="gp_50LsP-cC8xw_pavmQ-24" value="Edit" style="ellipse;whiteSpace=wrap;html=1;" vertex="1" parent="1">
          <mxGeometry x="400" y="200" width="122.5" height="70" as="geometry" />
        </mxCell>
        <mxCell id="gp_50LsP-cC8xw_pavmQ-25" value="Delete" style="ellipse;whiteSpace=wrap;html=1;" vertex="1" parent="1">
          <mxGeometry x="410" y="320" width="122.5" height="70" as="geometry" />
        </mxCell>
        <mxCell id="gp_50LsP-cC8xw_pavmQ-27" value="" style="edgeStyle=none;orthogonalLoop=1;jettySize=auto;html=1;rounded=0;entryX=-0.014;entryY=0.586;entryDx=0;entryDy=0;entryPerimeter=0;" edge="1" parent="1" target="gp_50LsP-cC8xw_pavmQ-19">
          <mxGeometry width="100" relative="1" as="geometry">
            <mxPoint x="220" y="169.57999999999998" as="sourcePoint" />
            <mxPoint x="320" y="169.57999999999998" as="targetPoint" />
            <Array as="points" />
          </mxGeometry>
        </mxCell>
        <mxCell id="gp_50LsP-cC8xw_pavmQ-28" value="" style="edgeStyle=none;orthogonalLoop=1;jettySize=auto;html=1;rounded=0;entryX=0;entryY=0.5;entryDx=0;entryDy=0;" edge="1" parent="1" target="gp_50LsP-cC8xw_pavmQ-23">
          <mxGeometry width="100" relative="1" as="geometry">
            <mxPoint x="220" y="169.57999999999998" as="sourcePoint" />
            <mxPoint x="320" y="169.57999999999998" as="targetPoint" />
            <Array as="points" />
          </mxGeometry>
        </mxCell>
        <mxCell id="gp_50LsP-cC8xw_pavmQ-29" value="" style="edgeStyle=none;orthogonalLoop=1;jettySize=auto;html=1;rounded=0;entryX=0;entryY=0.5;entryDx=0;entryDy=0;" edge="1" parent="1" target="gp_50LsP-cC8xw_pavmQ-24">
          <mxGeometry width="100" relative="1" as="geometry">
            <mxPoint x="220" y="169.57999999999998" as="sourcePoint" />
            <mxPoint x="320" y="169.57999999999998" as="targetPoint" />
            <Array as="points" />
          </mxGeometry>
        </mxCell>
        <mxCell id="gp_50LsP-cC8xw_pavmQ-30" value="" style="edgeStyle=none;orthogonalLoop=1;jettySize=auto;html=1;rounded=0;entryX=0.014;entryY=0.288;entryDx=0;entryDy=0;entryPerimeter=0;" edge="1" parent="1" target="gp_50LsP-cC8xw_pavmQ-25">
          <mxGeometry width="100" relative="1" as="geometry">
            <mxPoint x="220" y="170" as="sourcePoint" />
            <mxPoint x="350" y="240" as="targetPoint" />
            <Array as="points" />
          </mxGeometry>
        </mxCell>
      </root>
    </mxGraphModel>
  </diagram>
</mxfile>
